<svg width="76px" height="92px" viewBox="0 0 76 92" version="1.1" xmlns="http://www.w3.org/2000/svg" xmlns:xlink="http://www.w3.org/1999/xlink">
    <!-- Generator: Sketch 49 (51002) - http://www.bohemiancoding.com/sketch -->
    <desc>Created with Sketch.</desc>
    <defs></defs>
    <g id="Auth" stroke="none" stroke-width="1" fill="none" fill-rule="evenodd">
        <g id="Sign-In-Missing-Field---White" transform="translate(-142.000000, -450.000000)">
            <g id="Cybersecurity-Certified" transform="translate(121.000000, 450.000000)">
                <path d="M35.4094971,49.3972972 L37.5873684,47.2195678 L46.2036959,47.2195678 L46.2036959,47.4541407 C46.2036959,47.7386318 46.3009123,47.998655 46.4593684,48.2103507 L45.0780351,49.591683 L39.3520936,49.591683 L39.3520936,53.7491537 C37.8981988,52.434488 36.5769357,50.9761031 35.4094971,49.3972972 Z M40.9244444,20.0568274 C41.1813801,20.0568274 41.438269,20.1546519 41.6339649,20.3501138 C42.0251228,20.7414117 42.0251228,21.3779025 41.6339649,21.7692472 C41.2422924,22.1603113 40.6058012,22.1601242 40.2147836,21.7692472 C39.8236257,21.3779025 39.8236257,20.7414117 40.2147836,20.3501138 C40.4104795,20.1546519 40.6673684,20.0568274 40.9244444,20.0568274 Z M37.4043509,12.1845057 L46.9745965,21.7549315 L46.9745965,31.3679771 C46.5218713,31.5630646 46.2036959,32.0127953 46.2036959,32.5345727 L46.2036959,32.724748 L37.6886082,32.724748 L30.4140819,25.450227 C30.5410526,24.8958415 30.6846316,24.3477717 30.8426199,23.805737 L34.8110877,27.7743423 L35.5206082,27.0648691 L31.1803509,22.7245682 C31.3674386,22.1648961 31.5713684,21.6128497 31.7908304,21.0687565 L38.897731,28.1756519 L45.3789006,28.1756519 L45.3789006,24.6411984 L44.3753918,24.6411984 L44.3753918,27.1720971 L39.3132164,27.1720971 L32.2136608,20.0725935 C32.9198596,18.4928988 33.761076,16.9864203 34.7237895,15.5685968 L39.2009357,20.0456929 C38.7492865,20.8146748 38.8460351,21.8193993 39.5053099,22.4787672 C39.8964678,22.8700184 40.4104795,23.0655738 40.9244444,23.0655738 C41.438269,23.0655738 41.9522807,22.8700184 42.3434386,22.4787672 C43.1259415,21.6962648 43.1259415,20.423143 42.3434386,19.6406406 C41.6841637,18.9810855 40.6792047,18.8844774 39.9104094,19.3361262 L35.311345,14.7372056 C35.9616842,13.8472413 36.6602573,12.9947975 37.4043509,12.1845057 Z M48.7896608,11.1875006 C49.1808187,11.5787518 49.1808187,12.2153829 48.7896608,12.6068212 C48.3979883,12.9977449 47.7614971,12.9974642 47.3705263,12.6068212 L47.3706667,12.6068212 C46.9793216,12.2153829 46.9793216,11.5787518 47.3705263,11.1875006 C47.7614971,10.7964366 48.3979883,10.7960623 48.7896608,11.1875006 Z M40.1490526,9.557186 L43.3438129,12.7519907 L44.0533333,12.0424707 L40.9307602,8.91985313 C41.5810058,8.40977163 42.2541287,7.92785385 42.9466199,7.47307056 L46.3566316,10.883033 C45.9049357,11.6519681 46.0016842,12.6568329 46.6608655,13.3162944 L46.6610058,13.3162944 C47.0521637,13.7075455 47.5661754,13.9031477 48.0800468,13.9031477 C48.5939649,13.9031477 49.1079766,13.7075455 49.4993216,13.3162944 C50.2816374,12.5336049 50.2816374,11.2602491 49.4991813,10.4779806 C48.8398596,9.81837879 47.8349006,9.72186424 47.0660585,10.173513 L43.8146901,6.92219377 C44.7568187,6.34956261 45.7344094,5.83003083 46.7418947,5.36448731 L52.0589942,10.6814893 L52.0589942,13.9373465 L53.0625029,13.9373465 L53.0625029,10.2659106 L47.7270643,4.93066306 C48.0955322,4.7766047 48.4676491,4.62956387 48.8435088,4.4903359 L54.6516491,10.298472 L54.6516491,16.3421167 C53.6521637,16.8610871 52.7523743,17.5497416 51.9917193,18.366817 C51.7311813,18.6453665 51.488,18.9407581 51.2592281,19.2482198 L47.7557895,15.7447838 L47.046269,16.454257 L50.6900585,20.0980438 C49.7231813,21.7071186 49.169076,23.6073746 49.169076,25.629221 L49.169076,31.2639304 L47.9780585,31.2639304 L47.9780585,21.3393996 L38.0960468,11.4571612 C38.7498012,10.7920857 39.4349006,10.1579809 40.1490526,9.557186 Z M70.562152,12.6068212 C70.1708538,12.9977449 69.5342222,12.9977449 69.1431579,12.6068212 C68.7518596,12.2153829 68.7518596,11.5787518 69.1430175,11.1875006 C69.3387135,10.9918984 69.5956023,10.8941207 69.8526784,10.8941207 C70.1095673,10.8941207 70.3665029,10.9918984 70.562152,11.1875006 C70.9533567,11.5787518 70.9533567,12.2153829 70.562152,12.6068212 Z M79.8706901,11.4231963 L69.9546199,21.3393996 L69.9546199,31.2639304 L68.8350409,31.2639304 L68.8350409,25.629221 C68.8350409,23.58955 68.2690994,21.6734812 67.2850994,20.0554707 L70.8863626,16.454257 L70.1768889,15.7447838 L66.7123275,19.2092959 C66.4916491,18.9158692 66.2576842,18.6336706 66.0080936,18.366817 C65.7755789,18.1169458 65.5292164,17.8800337 65.2718129,17.6554257 L65.2718129,11.3978396 L68.0067368,8.66291764 L67.2972632,7.95344448 L64.2683509,10.9819803 L64.2683509,16.8882216 C63.9513918,16.6763387 63.6223626,16.4816254 63.2810292,16.3076372 L63.2810292,10.298472 L69.1076959,4.47176281 C70.8714854,5.12149333 72.5561637,5.93632315 74.1430175,6.89716455 L70.8666199,10.173513 C70.0975906,9.72172389 69.0926784,9.81861271 68.4334971,10.4779806 C67.6510409,11.2602491 67.6510409,12.5336049 68.4334971,13.3162944 C68.8247018,13.7075455 69.3387135,13.9031477 69.8526784,13.9031477 C70.3665029,13.9031477 70.8805146,13.7075455 71.2716725,13.3162944 L71.2718129,13.3162944 C71.9309942,12.6568329 72.0276959,11.6519681 71.5760468,10.883033 L75.0127719,7.44631035 C75.7061988,7.90011118 76.3799766,8.38146756 77.0311579,8.89066017 L73.879345,12.0424707 L74.5888187,12.7519907 L77.8144561,9.52630883 C78.5296374,10.1260745 79.2158129,10.7589629 79.8706901,11.4231963 Z M77.1209825,23.1072112 C76.729731,23.4978542 76.0930994,23.4982284 75.7017544,23.1072112 C75.3105965,22.71596 75.3105965,22.0794225 75.7017544,21.6882648 C75.8974035,21.4926159 76.1544795,21.3946978 76.4114152,21.3946978 C76.6684912,21.3946978 76.9254269,21.4926159 77.1209825,21.6880777 C77.5122339,22.0794225 77.5122339,22.71596 77.1209825,23.1072112 Z M82.9709006,15.1286439 L77.4254971,20.6741369 C76.6565614,20.2223946 75.6516959,20.3191898 74.9922807,20.9785578 C74.2097778,21.7610601 74.2097778,23.034182 74.9922807,23.8169183 C75.3836257,24.2080759 75.8975906,24.4035377 76.4114152,24.4035377 C76.9254269,24.4035377 77.4393918,24.2080759 77.8305497,23.8167311 C78.4898246,23.1574568 78.5866199,22.1526856 78.134924,21.3837037 L83.5447953,15.9738363 C84.4882807,17.413882 85.3096608,18.9408517 85.9916257,20.5411312 L79.360655,27.1720971 L73.2949708,27.1720971 L73.2949708,30.7734512 L74.298386,30.7734512 L74.298386,28.1756519 L79.7760936,28.1756519 L86.398924,21.5528264 C86.9288421,22.9379949 87.3566316,24.3729412 87.6729357,25.8490571 L80.7970994,32.724748 L71.7963977,32.724748 L71.7963977,32.5345727 C71.7963977,31.9871579 71.4444912,31.5227372 70.9580819,31.3447256 L70.9580819,21.7549315 L80.5631813,12.1496519 C81.428117,13.0884115 82.2329825,14.0832178 82.9709006,15.1286439 Z M85.2247018,40.3702629 C84.8334035,40.7616076 84.1965848,40.7616076 83.8055673,40.3702629 C83.4142222,39.9789649 83.4142222,39.3422402 83.8053801,38.9509423 C84.001076,38.7552465 84.258152,38.6574688 84.5150409,38.6574688 C84.7720234,38.6574688 85.0290526,38.7552465 85.2247018,38.9509423 C85.6159064,39.3422402 85.6159064,39.9789649 85.2247018,40.3702629 Z M78.9861053,38.6899366 C79.539462,38.6899366 79.989614,39.1400883 79.989614,39.6934447 C79.989614,40.246801 79.539462,40.6969059 78.9861053,40.6969059 C78.4327953,40.6969059 77.9825965,40.246801 77.9825965,39.6934447 C77.9825965,39.1400883 78.4327953,38.6899366 78.9861053,38.6899366 Z M73.9373567,46.0019313 L71.8780819,46.0019313 L71.8780819,45.045394 L71.7963977,45.045394 L71.7963977,44.6640141 L74.8597895,44.6640141 L81.2613333,51.0653662 C80.9139649,51.4704653 80.5563509,51.8666288 80.1876959,52.2521255 L73.9373567,46.0019313 Z M66.9442807,53.3671657 L66.9442807,48.7246895 L68.2822924,48.7246895 L68.2822924,52.7791895 L73.1690292,57.6659228 C72.7534971,57.8962384 72.3318363,58.116823 71.9043275,58.327162 L66.9442807,53.3671657 Z M59.0001404,55.3310941 C59.5534503,55.3310941 60.0035556,55.7811522 60.0035556,56.3345085 C60.0035556,56.8878648 59.5534503,57.3379698 59.0001404,57.3379698 C58.4466901,57.3379698 57.9965848,56.8878648 57.9965848,56.3345085 C57.9965848,55.7811522 58.4466901,55.3310941 59.0001404,55.3310941 Z M88.1742222,29.0272069 L82.1350643,35.06622 L71.7963977,35.06622 L71.7963977,33.7282093 L81.2126316,33.7282093 L87.9022222,27.0387171 C88.0144561,27.6945762 88.1064795,28.3573594 88.1742222,29.0272069 Z M55.4023392,21.5547913 C56.3599532,20.5363125 57.6118363,19.9482427 59.0019649,19.9482427 C60.3839532,19.9482427 61.6356023,20.5363125 62.5975205,21.5547913 C63.5510643,22.5754689 64.1642105,24.0099006 64.1642105,25.629221 L64.1642105,31.2639304 L53.8356023,31.2639304 L53.8356023,25.629221 C53.8356023,24.0099006 54.4487485,22.5754689 55.4023392,21.5547913 Z M59.0001404,9.00354897 C58.4466901,9.00354897 57.9965848,8.55344404 57.9965848,8.00008772 C57.9965848,7.44677818 58.4466901,6.99667325 59.0001404,6.99667325 C59.5534503,6.99667325 60.0035556,7.44677818 60.0035556,8.00008772 C60.0035556,8.55344404 59.5534503,9.00354897 59.0001404,9.00354897 Z M55.6181988,5.15316582 L55.6181988,2.87209147 C56.5654269,2.76285178 57.5261287,2.69871148 58.4982924,2.68233722 L58.4982924,4.05262862 L59.5018012,4.05262862 L59.5018012,2.68233722 C60.4559064,2.69847756 61.3988772,2.7605126 62.3290292,2.86610317 L62.3290292,7.33108236 L63.3324912,7.33108236 L63.3324912,2.99662939 C64.9527018,3.23756488 66.5295906,3.61239502 68.0526784,4.10788004 L62.2775673,9.88294014 L62.2775673,15.8688071 C61.4030877,15.5431933 60.4713918,15.3405268 59.5018012,15.2889713 L59.5018012,9.94104536 C60.3660351,9.71737301 61.0070175,8.9333268 61.0070175,8.00008772 C61.0070175,6.89342186 60.1067602,5.99311843 59.0001404,5.99311843 C57.8933333,5.99311843 56.9931228,6.89342186 56.9931228,8.00008772 C56.9931228,8.9333268 57.6341053,9.71737301 58.4982924,9.94104536 L58.4982924,15.2890648 C57.5035322,15.3421642 56.5485848,15.5531114 55.6551111,15.8934153 L55.6551111,9.88294014 L49.8965614,4.12444143 C51.4188538,3.62610261 52.9949942,3.24799763 54.6147368,3.00406798 L54.6147368,5.56869768 L55.8488421,6.80280204 L56.5583158,6.09323531 L55.6181988,5.15316582 Z M49.6341988,52.7791895 L49.6341988,48.7246895 L50.9722105,48.7246895 L50.9722105,53.3671657 L46.0399532,58.2994194 C45.6131462,58.0883318 45.1922339,57.8669986 44.7774503,57.636028 L49.6341988,52.7791895 Z M47.3743158,48.7143971 C47.4085614,48.7172509 47.4414503,48.7246895 47.4763977,48.7246895 L48.6307368,48.7246895 L48.6307368,52.3637044 L43.8786901,57.1157009 C42.6421988,56.3685202 41.4645614,55.5331992 40.3556023,54.6174572 L40.3556023,50.5951443 L45.4935205,50.5951443 L47.3743158,48.7143971 Z M36.2493567,44.8780491 L46.2036959,44.8780491 L46.2036959,46.2160598 L37.1718363,46.2160598 L34.8190409,48.5687598 C34.5107836,48.1202455 34.2131462,47.6637312 33.9295906,47.1977199 L36.2493567,44.8780491 Z M39.0139883,40.6969059 C38.4606784,40.6969059 38.0105263,40.246801 38.0105263,39.6934447 C38.0105263,39.1400883 38.4606784,38.6899366 39.0139883,38.6899366 C39.5673918,38.6899366 40.0174971,39.1400883 40.0174971,39.6934447 C40.0174971,40.246801 39.5673918,40.6969059 39.0139883,40.6969059 Z M46.2036959,35.06622 L36.3506433,35.06622 L29.8752281,28.5908563 C29.9522339,27.9291024 30.0507602,27.2738982 30.1711813,26.6263197 L37.2731228,33.7282093 L46.2036959,33.7282093 L46.2036959,35.06622 Z M31.9870409,41.0797361 L31.9871813,41.0797361 C32.3783392,41.4711276 32.8923509,41.6665894 33.4061754,41.6665894 C33.9201871,41.6665894 34.434152,41.4711276 34.8254971,41.0797361 C35.6078129,40.2970466 35.6078129,39.0238311 34.8253099,38.2414223 C34.166269,37.582148 33.1612632,37.4851656 32.3922339,37.9370483 L29.8766316,35.4214478 C29.7455439,34.2986884 29.6759298,33.1574494 29.6759298,32.0000702 C29.6759298,31.2895678 29.7027836,30.5853344 29.7527018,29.8873232 L35.9351111,36.069728 L46.2036959,36.069728 L46.2036959,37.0731425 L42.6098246,37.0731425 L42.6098246,38.0766505 L46.2036959,38.0766505 L46.2036959,39.1916439 L40.9549474,39.1916439 C40.7312749,38.3274574 39.9472281,37.6865222 39.0139883,37.6865222 C37.9073216,37.6865222 37.0070175,38.586732 37.0070175,39.6934447 C37.0070175,40.8001105 37.9073216,41.700414 39.0139883,41.700414 C39.9472281,41.700414 40.7312749,41.0593852 40.9549474,40.1951987 L46.2036959,40.1951987 L46.2036959,41.6445544 L42.6098246,41.6445544 L42.6098246,42.6479688 L46.2036959,42.6479688 L46.2036959,43.8746346 L35.8338713,43.8746346 L33.4076725,46.3007381 C31.825731,43.4809039 30.6955789,40.3752687 30.1177076,37.08147 L31.682807,38.646615 C31.2311111,39.4155501 31.3278596,40.4203681 31.9870409,41.0797361 Z M34.1158363,38.9509423 C34.5069942,39.3422402 34.5069942,39.9789649 34.1158363,40.3702629 C33.7244912,40.7609059 33.088,40.7612334 32.6967018,40.3702629 L32.6968421,40.3702629 C32.3054971,39.9789649 32.3054971,39.3422402 32.6967018,38.9509423 C33.088,38.5595975 33.7244912,38.5599718 34.1158363,38.9509423 Z M65.0828538,59.0571732 L65.0828538,60.6878621 C63.277614,61.0701776 61.4116959,61.2853821 59.5018012,61.3176628 L59.5018012,60.055769 L58.4982924,60.055769 L58.4982924,61.3176628 C56.4756023,61.283464 54.5022222,61.0437916 52.5980351,60.6181545 L54.6732164,58.5428344 L54.6732164,55.3310941 L53.6697076,55.3310941 L53.6697076,58.1273493 L51.4582456,60.3390436 C49.9201871,59.9293129 48.4310175,59.3985999 47.0027135,58.755653 L51.9756725,53.7826507 L51.9756725,48.7246895 L55.0697544,48.7246895 L55.0697544,51.8189095 L56.0732164,51.8189095 L56.0732164,48.7246895 L58.4982924,48.7246895 L58.4982924,54.3936444 C57.6341053,54.6172232 56.9931228,55.401363 56.9931228,56.3345085 C56.9931228,57.4411744 57.8933333,58.3415246 59.0001404,58.3415246 C60.1067602,58.3415246 61.0070175,57.4411744 61.0070175,56.3345085 C61.0070175,55.401363 60.3660351,54.6172232 59.5018012,54.3936444 L59.5018012,48.7246895 L61.8432749,48.7246895 L61.8432749,51.8189095 L62.8467368,51.8189095 L62.8467368,48.7246895 L65.9408187,48.7246895 L65.9408187,53.7826507 L70.9392281,58.7811032 C69.3878363,59.4754653 67.7654269,60.0380848 66.0863158,60.4563769 L66.0863158,58.6417349 L63.0899181,55.6453394 L62.3804444,56.3548126 L65.0828538,59.0571732 Z M72.5394152,50.0934838 L72.5394152,53.3012008 L75.4804211,56.2422513 C75.0191813,56.5567774 74.5483977,56.8582976 74.0688187,57.146812 L69.2857544,52.3637044 L69.2857544,48.7246895 L70.5277661,48.7246895 C71.2249825,48.7246895 71.7963977,48.1556607 71.7963977,47.4541407 L71.7963977,47.0054393 L73.5218246,47.0054393 L79.4809357,52.9643589 C78.4896374,53.9329196 77.4304561,54.8319131 76.3107836,55.6536201 L73.5428772,52.8856689 L73.5428772,50.0934838 L72.5394152,50.0934838 Z M83.7710409,47.6768774 C83.1958363,48.5824206 82.5719766,49.4540925 81.9039532,50.2890393 L75.2752749,43.6604593 L71.8780819,43.6604593 L71.8780819,42.703922 L71.7963977,42.703922 L71.7963977,42.6479688 L75.3115789,42.6479688 L75.3115789,41.6445544 L71.7963977,41.6445544 L71.7963977,41.3659113 L71.8780819,41.3659113 L71.8780819,40.3624032 L71.7963977,40.3624032 L71.7963977,40.1951987 L77.0451462,40.1951987 C77.2688655,41.0593852 78.0529123,41.700414 78.9861053,41.700414 C80.0928187,41.700414 80.993076,40.8001105 80.993076,39.6934447 C80.993076,38.586732 80.0928187,37.6865222 78.9861053,37.6865222 C78.0529123,37.6865222 77.2688655,38.3274574 77.0451462,39.1916439 L71.7963977,39.1916439 L71.7963977,39.0244393 L71.8780819,39.0244393 L71.8780819,38.0766505 L75.3115789,38.0766505 L75.3115789,37.0731425 L71.7963977,37.0731425 L71.7963977,36.069728 L82.5505497,36.069728 L88.2763041,30.3440714 C88.3069942,30.8923751 88.3240234,31.4442343 88.3240234,32.0000702 C88.3240234,33.1269933 88.2578246,34.2384779 88.1335205,35.3326993 L85.5291228,37.9370483 C84.7601871,37.4852124 83.7550877,37.5820076 83.0959064,38.2414223 C82.3134035,39.0238311 82.3134035,40.2970466 83.0959064,41.0797361 C83.4871111,41.4711276 84.001076,41.6667298 84.5150409,41.6667298 C85.0290526,41.6667298 85.5430643,41.4711276 85.9342222,41.0797361 L85.9343626,41.0797361 C86.5935439,40.4203681 86.6901988,39.4155501 86.2385965,38.646615 L87.8979181,36.9872478 C87.2917895,40.5099587 86.0551579,43.8193364 84.3086316,46.7954278 L81.5831579,44.0700964 L80.8736842,44.7796164 L83.7710409,47.6768774 Z M59.0001404,0 C41.3551345,0 27,14.3552176 27,32.0000702 C27,49.6447824 41.3551345,64 59.0001404,64 C76.6448187,64 91,49.6447824 91,32.0000702 C91,14.3552176 76.6448187,0 59.0001404,0 Z" id="Fill-1" fill="rgba(255,255,255,1)" transform="translate(59.000000, 32.000000) scale(-1, 1) translate(-59.000000, -32.000000) "></path>
                <text id="CYBERSECURITY-CERTIF" font-size="9" font-family="Roboto, Helvetica Neue, sans-serif" font-weight="normal" fill="rgba(255,255,255,1)">
                    <tspan x="21.1608887" y="80">CYBERSECURITY </tspan>
                    <tspan x="35.623291" y="91">CERTIFIED</tspan>
                </text>
            </g>
        </g>
    </g>
</svg>
