<?xml version="1.0" encoding="UTF-8" standalone="no"?>
<svg
   xmlns:dc="http://purl.org/dc/elements/1.1/"
   xmlns:cc="http://creativecommons.org/ns#"
   xmlns:rdf="http://www.w3.org/1999/02/22-rdf-syntax-ns#"
   xmlns:svg="http://www.w3.org/2000/svg"
   xmlns="http://www.w3.org/2000/svg"
   id="svg4551"
   version="1.1"
   viewBox="0 0 52.916665 52.916668"
   height="200"
   width="200">
  <defs
     id="defs4545" />
  <metadata
     id="metadata4548">
    <rdf:RDF>
      <cc:Work
         rdf:about="">
        <dc:format>image/svg+xml</dc:format>
        <dc:type
           rdf:resource="http://purl.org/dc/dcmitype/StillImage" />
        <dc:title></dc:title>
      </cc:Work>
    </rdf:RDF>
  </metadata>
  <g
     transform="translate(0,-244.08332)"
     id="layer1">
    <path
       id="path5102"
       transform="matrix(0.26458333,0,0,0.26458333,0,244.08332)"
       d="M 100.00195 7.5019531 C 54.16862 7.5019531 30.563767 30.786535 19.015625 53.882812 C 7.4674826 76.979128 7.5 99.998047 7.5 99.998047 C 7.5 99.998047 7.4674864 123.02286 19.015625 146.11914 C 30.563767 169.21542 54.16862 192.5 100.00195 192.5 C 145.83529 192.5 169.44014 169.21542 180.98828 146.11914 C 192.53642 123.02286 192.49805 99.998047 192.49805 99.998047 C 192.49805 99.998047 192.53641 76.979128 180.98828 53.882812 C 169.44014 30.786535 145.83529 7.5019531 100.00195 7.5019531 z M 100.00195 12.5 C 109.64881 12.5 118.20993 13.53709 125.8125 15.384766 L 113.00195 23.927734 L 113.00195 47.621094 C 110.20825 46.382947 107.01309 45.516986 103.39844 45.177734 L 103.39844 32.804688 C 107.73237 31.92729 111.02344 28.07387 111.02344 23.492188 C 111.02344 18.269183 106.74645 13.990234 101.52344 13.990234 C 96.300421 13.990234 92.023438 18.269183 92.023438 23.492188 C 92.023438 28.132755 95.401961 32.019279 99.818359 32.830078 L 99.818359 45.007812 C 96.981395 45.021698 94.384052 45.3597 92 45.935547 L 92 28.761719 L 68.458984 16.994141 C 73.442677 15.414156 78.874924 14.202614 84.810547 13.439453 L 84.810547 18 L 89.1875 18 L 89.1875 12.972656 C 92.63533 12.66922 96.229547 12.5 100.00195 12.5 z M 130.90625 16.798828 C 138.08649 19.012704 144.3369 21.986392 149.7832 25.5 L 138.20703 31.628906 C 136.54759 30.210362 134.40345 29.345703 132.0625 29.345703 C 126.83948 29.345703 122.56055 33.622698 122.56055 38.845703 C 122.56055 44.068708 126.83948 48.345703 132.0625 48.345703 C 137.28552 48.345703 141.55469 44.068708 141.55469 38.845703 C 141.55469 37.420204 141.22887 36.070413 140.66016 34.853516 L 153.49609 28.060547 C 158.34848 31.648721 162.50041 35.675258 166.05469 39.951172 L 133 58.835938 L 133 99.998047 L 137 99.998047 L 137 61.162109 L 168.55273 43.134766 C 171.38567 46.931846 173.79694 50.872957 175.85547 54.837891 L 160.55273 62.490234 C 158.83065 60.769131 156.45623 59.699219 153.8457 59.699219 C 148.62269 59.699219 144.3457 63.978167 144.3457 69.201172 C 144.3457 74.424177 148.62269 78.701172 153.8457 78.701172 C 159.06872 78.701172 163.3457 74.424177 163.3457 69.201172 C 163.3457 68.029812 163.12122 66.909755 162.72852 65.871094 L 177.62695 58.423828 C 179.66799 62.802849 181.27043 67.145 182.55469 71.291016 L 152.5918 84.001953 L 143.00195 84.001953 L 143.00195 88.001953 L 153.40234 88.001953 L 183.67969 75.160156 C 184.22562 77.179599 184.6913 79.120743 185.0918 80.984375 L 169.27344 87.138672 L 170.72852 90.865234 L 185.87891 84.96875 C 186.11939 86.314303 186.33201 87.607999 186.50586 88.8125 L 154.57617 103.00195 L 140 103.00195 L 140 100 L 60 100 L 60 103.00195 L 35.521484 103.00195 L 13.261719 90.537109 C 13.721941 86.960962 14.471426 82.578441 15.667969 77.708984 L 36.998047 89.197266 L 36.998047 97 L 49.998047 97 L 49.998047 93 L 40.998047 93 L 40.998047 86.806641 L 16.724609 73.736328 C 17.808226 69.929451 19.153036 65.92733 20.867188 61.84375 L 37.107422 70.699219 C 36.751071 71.694251 36.546875 72.759853 36.546875 73.873047 C 36.546875 79.096052 40.825812 83.373047 46.048828 83.373047 C 51.271844 83.373047 55.548828 79.096052 55.548828 73.873047 C 55.548828 68.650004 51.271844 64.373047 46.048828 64.373047 C 43.374107 64.373047 40.952016 65.498861 39.220703 67.294922 L 22.494141 58.173828 L 22.494141 58.171875 C 22.815405 57.487919 23.146036 56.803632 23.488281 56.119141 C 24.211768 54.672167 24.984548 53.226237 25.802734 51.787109 L 35.994141 57.728516 L 38.009766 54.273438 L 27.863281 48.353516 C 28.976079 46.590989 30.172387 44.848787 31.451172 43.134766 L 62.996094 61.162109 L 62.996094 99.998047 L 66.998047 99.998047 L 66.998047 58.835938 L 33.947266 39.953125 C 36.772372 36.554166 39.980644 33.316148 43.611328 30.326172 L 57.533203 38.837891 C 56.980327 40.040005 56.664061 41.370217 56.664062 42.773438 C 56.664062 47.996442 60.941046 52.273438 66.164062 52.273438 C 71.387079 52.273438 75.664062 47.996442 75.664062 42.773438 C 75.664062 37.550433 71.387079 33.273438 66.164062 33.273438 C 63.788138 33.273438 61.614324 34.164461 59.943359 35.621094 L 46.984375 27.701172 C 51.705587 24.271758 57.098912 21.270995 63.238281 18.851562 L 88 31.234375 L 88 47.197266 C 86.946904 47.616517 85.948882 48.085954 85.001953 48.599609 L 85.001953 34.763672 L 75.892578 30.208984 L 74.107422 33.789062 L 81.001953 37.236328 L 81.001953 51.246094 C 77.661255 53.907448 75.229733 57.114752 73.65625 60.261719 C 69.934965 67.704289 70.001953 75.001953 70.001953 75.001953 L 70.001953 99.998047 L 79.998047 99.998047 L 79.998047 75.001953 C 79.998047 75.001953 80.066972 69.791799 82.595703 64.734375 C 85.124415 59.676951 89.168625 54.998009 100.00195 54.998047 C 110.83529 54.998009 114.87363 59.676951 117.40234 64.734375 C 119.93106 69.791799 120 75.001953 120 75.001953 L 120 99.998047 L 130.00195 99.998047 L 130.00195 75.001953 C 130.00195 75.001953 130.06893 67.704289 126.34766 60.261719 C 126.24794 60.062292 126.13192 59.861914 126.02539 59.662109 L 140.93555 51.763672 L 139.06836 48.236328 L 123.88086 56.273438 C 122.1146 53.903179 119.83491 51.646822 117.00391 49.785156 L 117.00391 26.068359 L 130.90625 16.798828 z M 101.52344 17.992188 C 104.58469 17.992188 107.02344 20.430921 107.02344 23.492188 C 107.02344 26.553454 104.58469 28.990234 101.52344 28.990234 C 98.462183 28.990234 96.023438 26.553454 96.023438 23.492188 C 96.023438 20.430921 98.462183 17.992188 101.52344 17.992188 z M 132.0625 33.345703 C 135.12375 33.345703 137.56055 35.784437 137.56055 38.845703 C 137.56055 41.906969 135.12375 44.345703 132.0625 44.345703 C 129.00125 44.345703 126.55469 41.906969 126.55469 38.845703 C 126.55469 35.784437 129.00125 33.345703 132.0625 33.345703 z M 66.164062 37.273438 C 69.225321 37.273438 71.664059 39.712171 71.664062 42.773438 C 71.664062 45.834704 69.225321 48.273438 66.164062 48.273438 C 63.102808 48.273438 60.664063 45.834704 60.664062 42.773438 C 60.664062 39.712171 63.102808 37.273438 66.164062 37.273438 z M 153.8457 63.701172 C 156.90696 63.701172 159.3457 66.139906 159.3457 69.201172 C 159.3457 72.262438 156.90696 74.699219 153.8457 74.699219 C 150.78445 74.699219 148.3457 72.262438 148.3457 69.201172 C 148.3457 66.139906 150.78445 63.701172 153.8457 63.701172 z M 46.048828 68.373047 C 49.110083 68.373047 51.546875 70.811781 51.546875 73.873047 C 51.546875 76.934275 49.110083 79.373047 46.048828 79.373047 C 42.987573 79.373047 40.548828 76.934275 40.548828 73.873047 C 40.548828 70.811781 42.987573 68.373047 46.048828 68.373047 z M 187.02344 92.957031 C 187.10435 93.722578 187.17332 94.431483 187.22852 95.085938 L 159.55859 108 L 140 108 L 140 107.00391 L 155.42578 107.00391 L 187.02344 92.957031 z M 12.789062 94.857422 L 34.480469 107.00391 L 60 107.00391 L 60 108 L 30.53125 108 L 12.591797 97.746094 C 12.633307 96.939173 12.682776 96.078394 12.789062 94.857422 z M 187.48438 99.380859 C 187.48995 99.638208 187.5 99.998047 187.5 99.998047 C 187.5 99.998047 187.46765 117.50684 179.67773 136.8418 L 170.83203 127.99805 L 140 127.99805 L 140 125.99609 L 152 125.99609 L 152 122.00391 L 140 122.00391 L 140 120.03906 L 164.53711 120.03906 C 165.4258 124.35868 169.27229 127.63477 173.84375 127.63477 C 179.06677 127.63477 183.34375 123.35781 183.34375 118.13477 C 183.34375 112.91176 179.06677 108.63477 173.84375 108.63477 C 169.37056 108.63477 165.60045 111.77517 164.60742 115.95703 L 140 115.95703 L 140 112 L 160.44531 112 L 187.48438 99.380859 z M 12.597656 102.35938 L 29.46875 112 L 60 112 L 60 138 L 44.306641 138 L 27.583984 151.19922 C 26.079396 148.7827 24.713982 146.33422 23.488281 143.88281 C 23.282096 143.47044 23.087194 143.05876 22.888672 142.64648 L 30.650391 137.00391 L 34.998047 137.00391 L 34.998047 133.00195 L 29.349609 133.00195 L 21.197266 138.93164 C 19.441494 134.84696 18.049803 130.82779 16.931641 127 L 38.691406 127 C 39.648697 131.23017 43.445471 134.41992 47.953125 134.41992 C 53.176141 134.41992 57.453125 130.14097 57.453125 124.91797 C 57.453125 119.69493 53.176141 115.41797 47.953125 115.41797 C 43.387275 115.41797 39.54524 118.68824 38.650391 123 L 15.841797 123 C 15.40514 121.2707 15.026858 119.60349 14.697266 118.00195 L 25.001953 118.00195 L 25.001953 114.00195 L 13.9375 114.00195 C 13.039527 108.71543 12.723045 104.72944 12.597656 102.35938 z M 173.84375 112.63477 C 176.905 112.63477 179.34375 115.07354 179.34375 118.13477 C 179.34375 121.19603 176.905 123.63477 173.84375 123.63477 C 170.7825 123.63477 168.34375 121.19603 168.34375 118.13477 C 168.34375 115.07354 170.7825 112.63477 173.84375 112.63477 z M 47.953125 119.41992 C 51.01438 119.41992 53.453125 121.8567 53.453125 124.91797 C 53.453125 127.9792 51.01438 130.41797 47.953125 130.41797 C 44.89187 130.41797 42.453125 127.9792 42.453125 124.91797 C 42.453125 121.8567 44.89187 119.41992 47.953125 119.41992 z M 140 131.99805 L 169.16992 131.99805 L 177.97461 140.81055 C 177.61099 141.60922 177.23569 142.40884 176.84375 143.20898 L 165.7832 133.00195 L 140 133.00195 L 140 131.99805 z M 140 137.00391 L 164.2168 137.00391 L 174.93359 146.89258 C 172.70134 150.9774 170.083 155.01908 167 158.88086 L 167 149.06445 L 159.72266 142.99805 L 152 142.99805 L 152 146.99805 L 158.27539 146.99805 L 163 150.93945 L 163 163.5 C 159.54993 167.1629 155.60706 170.58896 151.0957 173.64258 L 137 163.94727 L 137 150.00195 L 133 150.00195 L 133 166.05078 L 147.41602 175.96289 C 146.55682 176.47096 145.6785 176.96606 144.78125 177.44727 L 132.00391 168.92969 L 132.00391 150.00195 L 128.00195 150.00195 L 128.00195 171.07031 L 140.6582 179.50977 C 137.6446 180.89231 134.42192 182.11585 130.99805 183.17578 L 130.99805 178.99805 L 126.20117 175.4043 L 123.80078 178.59961 L 126.99805 181 L 126.99805 184.30859 C 122.94935 185.35181 118.62103 186.15917 113.99805 186.70117 L 113.99805 181 L 109.99805 181 L 109.99805 187.0957 C 106.79789 187.35427 103.47824 187.50195 100.00195 187.50195 C 91.718984 187.50195 84.237085 186.7371 77.474609 185.35156 L 85.001953 177.82422 L 85.001953 169.00391 L 81.001953 169.00391 L 81.001953 176.17188 L 72.894531 184.2793 C 69.8976 183.50286 67.04668 182.60166 64.345703 181.58398 L 72.003906 176.01562 L 72.003906 150.00195 L 68.001953 150.00195 L 68.001953 173.97852 L 60.003906 179.79688 C 58.862639 179.28622 57.740254 178.76079 56.654297 178.20898 L 66.998047 171.04883 L 66.998047 150.00195 L 62.996094 150.00195 L 62.996094 168.95117 L 52.740234 176.05078 C 49.709174 174.26831 46.906566 172.32826 44.322266 170.25586 L 58 159.99805 L 58 155 L 53.998047 155 L 53.998047 157.99805 L 41.197266 167.60352 C 38.434955 165.11234 35.941065 162.47314 33.689453 159.73438 L 50.669922 146.99805 L 60 146.99805 L 60 150 L 98.001953 150 L 98.001953 163.11719 C 93.686287 164.00896 90.414062 167.85323 90.414062 172.42188 C 90.414062 177.64492 94.691046 181.91406 99.914062 181.91406 C 105.13708 181.91406 109.41406 177.64492 109.41406 172.42188 C 109.41406 167.91703 106.23015 164.12234 102.00391 163.16211 L 102.00391 150 L 139.99805 150 L 139.99805 150.00195 L 144.31641 150.00195 L 152.77539 156.58008 L 155.22656 153.41992 L 145.68945 146.00195 L 140 146.00195 L 140 137.00391 z M 45.693359 142 L 60 142 L 60 142.99805 L 49.333984 142.99805 L 31.232422 156.57617 C 30.73854 155.90776 30.257294 155.23524 29.789062 154.55859 L 45.693359 142 z M 81.001953 150.00195 L 81.001953 159.99805 L 85.001953 159.99805 L 85.001953 150.00195 L 81.001953 150.00195 z M 113.00195 150.00195 L 113.00195 171.07031 L 119.88867 175.66211 L 122.11133 172.33203 L 117.00391 168.92969 L 117.00391 150.00195 L 113.00195 150.00195 z M 99.914062 166.91406 C 102.97532 166.91406 105.41406 169.36065 105.41406 172.42188 C 105.41406 175.48314 102.97532 177.91992 99.914062 177.91992 C 96.852808 177.91992 94.414062 175.48314 94.414062 172.42188 C 94.414062 169.36065 96.852808 166.91406 99.914062 166.91406 z "
       style="color:#000000;font-style:normal;font-variant:normal;font-weight:normal;font-stretch:normal;font-size:medium;line-height:normal;font-family:sans-serif;font-variant-ligatures:normal;font-variant-position:normal;font-variant-caps:normal;font-variant-numeric:normal;font-variant-alternates:normal;font-feature-settings:normal;text-indent:0;text-align:start;text-decoration:none;text-decoration-line:none;text-decoration-style:solid;text-decoration-color:#000000;letter-spacing:normal;word-spacing:normal;text-transform:none;writing-mode:lr-tb;direction:ltr;text-orientation:mixed;dominant-baseline:auto;baseline-shift:baseline;text-anchor:start;white-space:normal;shape-padding:0;clip-rule:nonzero;display:inline;overflow:visible;visibility:visible;opacity:1;isolation:auto;mix-blend-mode:normal;color-interpolation:sRGB;color-interpolation-filters:linearRGB;solid-color:#000000;solid-opacity:1;vector-effect:none;fill:#fffffc;fill-opacity:0.8;fill-rule:nonzero;stroke:none;stroke-width:5;stroke-linecap:butt;stroke-linejoin:miter;stroke-miterlimit:4;stroke-dasharray:none;stroke-dashoffset:0;stroke-opacity:1;color-rendering:auto;image-rendering:auto;shape-rendering:auto;text-rendering:auto;enable-background:accumulate" />
  </g>
</svg>
